<?xml version="1.0" encoding="utf-8"?>
<!-- Generator: Adobe Illustrator 22.1.0, SVG Export Plug-In . SVG Version: 6.00 Build 0)  -->
<svg version="1.1" id="Hospital" xmlns="http://www.w3.org/2000/svg" xmlns:xlink="http://www.w3.org/1999/xlink" x="0px" y="0px"
	 viewBox="0 0 144.1 144" style="enable-background:new 0 0 144.1 144;" xml:space="preserve">
<style type="text/css">
	.st0{fill:#36A69B;}
</style>
<g>
	<path class="st0" d="M80,75.5l-5.2,20.3c-0.3,1.5-1.7,2.6-3.3,2.6l0,0c-1.6,0-3-1.1-3.3-2.6l-8.3-34.5l-4.3,12.1
		c-0.5,1.4-1.8,2.3-3.2,2.3H29.8c10.8,11.7,42.1,37.2,42.1,37.2h0.2c0,0,31.3-25.5,42.1-37.2L80,75.5L80,75.5z"/>
	<path class="st0" d="M50,68.7l7.4-20.5c0.5-1.4,1.9-2.4,3.4-2.3c1.5,0.1,2.7,1.1,3.2,2.6l7.7,32.2l2.5-9.6c0.3-1.5,1.7-2.6,3.3-2.6
		H119c4.9-9.9,3.8-21.8-4.4-29.9c-10-10-26.3-10-36.4,0l-6,6h-0.2v0.1l-6-6c-10-10-26.3-10-36.4,0c-8.2,8.2-9.3,20.1-4.4,29.9H50
		L50,68.7z"/>
</g>
</svg>
